<svg width="258" height="80" viewBox="0 0 258 80" fill="none" xmlns="http://www.w3.org/2000/svg">
<g filter="url(#filter0_d_2365_12)">
<mask id="path-1-outside-1_2365_12" maskUnits="userSpaceOnUse" x="16" y="22" width="124" height="41" fill="black">
<rect fill="white" x="16" y="22" width="124" height="41"/>
<path d="M33.1625 24.0859C38.0128 24.0859 41.6586 24.8835 44.1 26.4785C46.5414 28.0736 47.7621 30.4336 47.7621 33.5586C47.7621 34.6979 47.5668 35.7721 47.1762 36.7812C46.7855 37.7578 46.2322 38.5553 45.516 39.1738C45.1579 39.4668 44.8161 39.7272 44.4906 39.9551C44.1651 40.1829 43.7908 40.3945 43.3676 40.5898C42.977 40.7526 42.5049 40.9154 41.9516 41.0781C41.4307 41.2409 40.8122 41.4199 40.0961 41.6152C41.0076 41.8105 41.7888 42.0059 42.4398 42.2012C43.1234 42.3965 43.7256 42.6243 44.2465 42.8848C44.7673 43.1126 45.2393 43.373 45.6625 43.666C46.0857 43.959 46.5089 44.3008 46.932 44.6914C48.7549 46.319 49.6664 48.4186 49.6664 50.9902C49.6664 52.5527 49.3572 53.9525 48.7387 55.1895C48.1202 56.4264 47.225 57.4844 46.0531 58.3633C44.8812 59.2096 43.4652 59.8607 41.8051 60.3164C40.1449 60.7721 38.2732 61 36.1898 61H17.5375V59.9746C18.6768 59.9421 19.5883 59.8607 20.2719 59.7305C20.988 59.5677 21.5414 59.3073 21.932 58.9492C22.3227 58.5911 22.5831 58.1029 22.7133 57.4844C22.8435 56.8333 22.9086 56.0033 22.9086 54.9941V30.1895C22.9086 29.1478 22.8435 28.3177 22.7133 27.6992C22.6156 27.0807 22.3715 26.5924 21.9809 26.2344C21.5902 25.8763 21.0368 25.6322 20.3207 25.502C19.6371 25.3717 18.7094 25.2741 17.5375 25.209V24.0859H33.1625ZM28.5238 56.6543C28.5238 57.5658 28.768 58.1842 29.2562 58.5098C29.7445 58.8027 30.6397 58.9492 31.9418 58.9492C32.9184 58.9492 33.781 58.9329 34.5297 58.9004C35.3109 58.8353 36.0108 58.7539 36.6293 58.6562C37.2803 58.526 37.8663 58.3633 38.3871 58.168C38.9079 57.9727 39.3962 57.7448 39.852 57.4844C42.1306 56.1823 43.2699 54.0339 43.2699 51.0391C43.2699 47.5234 41.6586 45.1471 38.4359 43.9102C37.9151 43.7148 37.3454 43.5521 36.727 43.4219C36.141 43.2917 35.4574 43.194 34.6762 43.1289C33.9275 43.0312 33.0486 42.9661 32.0395 42.9336C31.0303 42.8685 29.8585 42.8359 28.5238 42.8359V56.6543ZM33.8949 40.5898C36.5316 40.5898 38.5499 40.0202 39.9496 38.8809C41.3819 37.709 42.098 36.0163 42.098 33.8027C42.098 31.2637 41.268 29.3594 39.6078 28.0898C37.9477 26.8203 35.49 26.1855 32.2348 26.1855H29.7934C28.947 26.1855 28.5238 26.7389 28.5238 27.8457V40.5898H33.8949ZM77.1078 61H76.2777L62.2641 30.3848V52.7969C62.2641 54.2292 62.3292 55.401 62.4594 56.3125C62.6221 57.1914 62.8988 57.8913 63.2895 58.4121C63.6801 58.9329 64.2172 59.3073 64.9008 59.5352C65.5844 59.763 66.4633 59.9095 67.5375 59.9746V61H54.4516V59.9746C55.5909 59.877 56.5023 59.7305 57.1859 59.5352C57.9021 59.3073 58.4392 58.9329 58.7973 58.4121C59.1879 57.8913 59.4483 57.1914 59.5785 56.3125C59.7087 55.401 59.7738 54.2292 59.7738 52.7969V30.1895C59.7738 29.1803 59.7087 28.3665 59.5785 27.748C59.4809 27.1296 59.2367 26.6413 58.8461 26.2832C58.488 25.9251 57.9672 25.681 57.2836 25.5508C56.6 25.388 55.6885 25.2741 54.5492 25.209V24.0859H65.5844L78.4262 52.2598L90.8285 24.0859H101.864V25.209C100.822 25.2741 99.9919 25.388 99.3734 25.5508C98.7549 25.7135 98.2667 25.974 97.9086 26.332C97.5505 26.6901 97.3064 27.1784 97.1762 27.7969C97.0785 28.4154 97.0297 29.2129 97.0297 30.1895V54.9941C97.0297 55.9707 97.0948 56.7682 97.225 57.3867C97.3552 58.0052 97.5831 58.4935 97.9086 58.8516C98.2667 59.2096 98.7549 59.4701 99.3734 59.6328C100.024 59.7956 100.855 59.9095 101.864 59.9746V61H86.2387V59.9746C87.3454 59.9095 88.2243 59.7956 88.8754 59.6328C89.559 59.4701 90.0798 59.1934 90.4379 58.8027C90.796 58.3796 91.0238 57.8262 91.1215 57.1426C91.2517 56.4264 91.3168 55.4824 91.3168 54.3105V29.0664L77.1078 61ZM136.678 35.9023C136.418 34.9909 136.157 34.2096 135.897 33.5586C135.636 32.875 135.36 32.2728 135.067 31.752C134.806 31.1986 134.497 30.7103 134.139 30.2871C133.814 29.8639 133.423 29.4245 132.967 28.9688C131.86 27.8294 130.591 26.9831 129.159 26.4297C127.759 25.8438 126.261 25.5508 124.666 25.5508C122.648 25.5508 120.809 25.9414 119.149 26.7227C117.521 27.5039 116.121 28.627 114.95 30.0918C113.81 31.5241 112.931 33.2656 112.313 35.3164C111.694 37.3672 111.385 39.6458 111.385 42.1523C111.385 45.4076 111.825 48.2559 112.704 50.6973C113.582 53.1387 114.836 55.043 116.463 56.4102C118.905 58.3633 121.818 59.3398 125.204 59.3398C127.515 59.3398 129.647 58.9004 131.6 58.0215C133.553 57.1426 135.571 55.7103 137.655 53.7246L138.631 54.7012C136.939 56.9473 134.774 58.6888 132.137 59.9258C129.533 61.1628 126.636 61.7812 123.446 61.7812C120.679 61.7812 118.156 61.3255 115.877 60.4141C113.599 59.5026 111.646 58.2331 110.018 56.6055C108.39 54.9453 107.121 52.9596 106.209 50.6484C105.33 48.3372 104.891 45.7656 104.891 42.9336C104.891 39.7109 105.444 36.8138 106.551 34.2422C107.658 31.638 109.286 29.457 111.434 27.6992C113.127 26.332 115.031 25.2741 117.147 24.5254C119.263 23.7441 121.395 23.3535 123.543 23.3535C126.31 23.3535 129.045 23.8092 131.746 24.7207C132.658 25.0462 133.39 25.209 133.944 25.209C134.497 25.209 134.969 25.0462 135.36 24.7207C135.783 24.3952 136.076 23.9395 136.239 23.3535H137.411L137.948 35.9023H136.678Z"/>
</mask>
<path d="M33.1625 24.0859C38.0128 24.0859 41.6586 24.8835 44.1 26.4785C46.5414 28.0736 47.7621 30.4336 47.7621 33.5586C47.7621 34.6979 47.5668 35.7721 47.1762 36.7812C46.7855 37.7578 46.2322 38.5553 45.516 39.1738C45.1579 39.4668 44.8161 39.7272 44.4906 39.9551C44.1651 40.1829 43.7908 40.3945 43.3676 40.5898C42.977 40.7526 42.5049 40.9154 41.9516 41.0781C41.4307 41.2409 40.8122 41.4199 40.0961 41.6152C41.0076 41.8105 41.7888 42.0059 42.4398 42.2012C43.1234 42.3965 43.7256 42.6243 44.2465 42.8848C44.7673 43.1126 45.2393 43.373 45.6625 43.666C46.0857 43.959 46.5089 44.3008 46.932 44.6914C48.7549 46.319 49.6664 48.4186 49.6664 50.9902C49.6664 52.5527 49.3572 53.9525 48.7387 55.1895C48.1202 56.4264 47.225 57.4844 46.0531 58.3633C44.8812 59.2096 43.4652 59.8607 41.8051 60.3164C40.1449 60.7721 38.2732 61 36.1898 61H17.5375V59.9746C18.6768 59.9421 19.5883 59.8607 20.2719 59.7305C20.988 59.5677 21.5414 59.3073 21.932 58.9492C22.3227 58.5911 22.5831 58.1029 22.7133 57.4844C22.8435 56.8333 22.9086 56.0033 22.9086 54.9941V30.1895C22.9086 29.1478 22.8435 28.3177 22.7133 27.6992C22.6156 27.0807 22.3715 26.5924 21.9809 26.2344C21.5902 25.8763 21.0368 25.6322 20.3207 25.502C19.6371 25.3717 18.7094 25.2741 17.5375 25.209V24.0859H33.1625ZM28.5238 56.6543C28.5238 57.5658 28.768 58.1842 29.2562 58.5098C29.7445 58.8027 30.6397 58.9492 31.9418 58.9492C32.9184 58.9492 33.781 58.9329 34.5297 58.9004C35.3109 58.8353 36.0108 58.7539 36.6293 58.6562C37.2803 58.526 37.8663 58.3633 38.3871 58.168C38.9079 57.9727 39.3962 57.7448 39.852 57.4844C42.1306 56.1823 43.2699 54.0339 43.2699 51.0391C43.2699 47.5234 41.6586 45.1471 38.4359 43.9102C37.9151 43.7148 37.3454 43.5521 36.727 43.4219C36.141 43.2917 35.4574 43.194 34.6762 43.1289C33.9275 43.0312 33.0486 42.9661 32.0395 42.9336C31.0303 42.8685 29.8585 42.8359 28.5238 42.8359V56.6543ZM33.8949 40.5898C36.5316 40.5898 38.5499 40.0202 39.9496 38.8809C41.3819 37.709 42.098 36.0163 42.098 33.8027C42.098 31.2637 41.268 29.3594 39.6078 28.0898C37.9477 26.8203 35.49 26.1855 32.2348 26.1855H29.7934C28.947 26.1855 28.5238 26.7389 28.5238 27.8457V40.5898H33.8949ZM77.1078 61H76.2777L62.2641 30.3848V52.7969C62.2641 54.2292 62.3292 55.401 62.4594 56.3125C62.6221 57.1914 62.8988 57.8913 63.2895 58.4121C63.6801 58.9329 64.2172 59.3073 64.9008 59.5352C65.5844 59.763 66.4633 59.9095 67.5375 59.9746V61H54.4516V59.9746C55.5909 59.877 56.5023 59.7305 57.1859 59.5352C57.9021 59.3073 58.4392 58.9329 58.7973 58.4121C59.1879 57.8913 59.4483 57.1914 59.5785 56.3125C59.7087 55.401 59.7738 54.2292 59.7738 52.7969V30.1895C59.7738 29.1803 59.7087 28.3665 59.5785 27.748C59.4809 27.1296 59.2367 26.6413 58.8461 26.2832C58.488 25.9251 57.9672 25.681 57.2836 25.5508C56.6 25.388 55.6885 25.2741 54.5492 25.209V24.0859H65.5844L78.4262 52.2598L90.8285 24.0859H101.864V25.209C100.822 25.2741 99.9919 25.388 99.3734 25.5508C98.7549 25.7135 98.2667 25.974 97.9086 26.332C97.5505 26.6901 97.3064 27.1784 97.1762 27.7969C97.0785 28.4154 97.0297 29.2129 97.0297 30.1895V54.9941C97.0297 55.9707 97.0948 56.7682 97.225 57.3867C97.3552 58.0052 97.5831 58.4935 97.9086 58.8516C98.2667 59.2096 98.7549 59.4701 99.3734 59.6328C100.024 59.7956 100.855 59.9095 101.864 59.9746V61H86.2387V59.9746C87.3454 59.9095 88.2243 59.7956 88.8754 59.6328C89.559 59.4701 90.0798 59.1934 90.4379 58.8027C90.796 58.3796 91.0238 57.8262 91.1215 57.1426C91.2517 56.4264 91.3168 55.4824 91.3168 54.3105V29.0664L77.1078 61ZM136.678 35.9023C136.418 34.9909 136.157 34.2096 135.897 33.5586C135.636 32.875 135.36 32.2728 135.067 31.752C134.806 31.1986 134.497 30.7103 134.139 30.2871C133.814 29.8639 133.423 29.4245 132.967 28.9688C131.86 27.8294 130.591 26.9831 129.159 26.4297C127.759 25.8438 126.261 25.5508 124.666 25.5508C122.648 25.5508 120.809 25.9414 119.149 26.7227C117.521 27.5039 116.121 28.627 114.95 30.0918C113.81 31.5241 112.931 33.2656 112.313 35.3164C111.694 37.3672 111.385 39.6458 111.385 42.1523C111.385 45.4076 111.825 48.2559 112.704 50.6973C113.582 53.1387 114.836 55.043 116.463 56.4102C118.905 58.3633 121.818 59.3398 125.204 59.3398C127.515 59.3398 129.647 58.9004 131.6 58.0215C133.553 57.1426 135.571 55.7103 137.655 53.7246L138.631 54.7012C136.939 56.9473 134.774 58.6888 132.137 59.9258C129.533 61.1628 126.636 61.7812 123.446 61.7812C120.679 61.7812 118.156 61.3255 115.877 60.4141C113.599 59.5026 111.646 58.2331 110.018 56.6055C108.39 54.9453 107.121 52.9596 106.209 50.6484C105.33 48.3372 104.891 45.7656 104.891 42.9336C104.891 39.7109 105.444 36.8138 106.551 34.2422C107.658 31.638 109.286 29.457 111.434 27.6992C113.127 26.332 115.031 25.2741 117.147 24.5254C119.263 23.7441 121.395 23.3535 123.543 23.3535C126.31 23.3535 129.045 23.8092 131.746 24.7207C132.658 25.0462 133.39 25.209 133.944 25.209C134.497 25.209 134.969 25.0462 135.36 24.7207C135.783 24.3952 136.076 23.9395 136.239 23.3535H137.411L137.948 35.9023H136.678Z" fill="black"/>
<path d="M47.1762 36.7812L48.1047 37.1527L48.1087 37.1422L47.1762 36.7812ZM45.516 39.1738L46.1493 39.9478L46.1596 39.9394L46.1696 39.9307L45.516 39.1738ZM43.3676 40.5898L43.7522 41.5129L43.7696 41.5057L43.7866 41.4978L43.3676 40.5898ZM41.9516 41.0781L41.6694 40.1188L41.6613 40.1211L41.6533 40.1236L41.9516 41.0781ZM40.0961 41.6152L39.833 40.6505L39.8866 42.593L40.0961 41.6152ZM42.4398 42.2012L42.1525 43.1591L42.1651 43.1627L42.4398 42.2012ZM44.2465 42.8848L43.7993 43.7792L43.8222 43.7907L43.8457 43.8009L44.2465 42.8848ZM46.932 44.6914L46.2537 45.4262L46.2598 45.4318L46.266 45.4373L46.932 44.6914ZM48.7387 55.1895L49.6331 55.6367L48.7387 55.1895ZM46.0531 58.3633L46.6386 59.174L46.6459 59.1687L46.6531 59.1633L46.0531 58.3633ZM17.5375 61H16.5375V62H17.5375V61ZM17.5375 59.9746L17.5089 58.975L16.5375 59.0028V59.9746H17.5375ZM20.2719 59.7305L20.459 60.7128L20.4763 60.7095L20.4935 60.7056L20.2719 59.7305ZM22.7133 57.4844L23.6919 57.6904L23.6939 57.6805L22.7133 57.4844ZM22.7133 27.6992L21.7255 27.8552L21.7295 27.8803L21.7347 27.9052L22.7133 27.6992ZM20.3207 25.502L20.1336 26.4843L20.1418 26.4858L20.3207 25.502ZM17.5375 25.209H16.5375V26.155L17.482 26.2074L17.5375 25.209ZM17.5375 24.0859V23.0859H16.5375V24.0859H17.5375ZM29.2562 58.5098L28.7015 59.3418L28.7213 59.355L28.7418 59.3673L29.2562 58.5098ZM34.5297 58.9004L34.5731 59.8994L34.593 59.8986L34.6127 59.8969L34.5297 58.9004ZM36.6293 58.6562L36.7853 59.644L36.8054 59.6408L36.8254 59.6368L36.6293 58.6562ZM39.852 57.4844L39.3558 56.6161L39.852 57.4844ZM38.4359 43.9102L38.7943 42.9765L38.7871 42.9738L38.4359 43.9102ZM36.727 43.4219L36.51 44.3981L36.5209 44.4004L36.727 43.4219ZM34.6762 43.1289L34.5468 44.1205L34.5699 44.1235L34.5931 44.1255L34.6762 43.1289ZM32.0395 42.9336L31.9751 43.9315L31.9911 43.9326L32.0072 43.9331L32.0395 42.9336ZM28.5238 42.8359V41.8359H27.5238V42.8359H28.5238ZM39.9496 38.8809L40.5809 39.6564L40.5828 39.6548L39.9496 38.8809ZM28.5238 40.5898H27.5238V41.5898H28.5238V40.5898ZM33.1625 24.0859V25.0859C37.9341 25.0859 41.3497 25.8761 43.553 27.3157L44.1 26.4785L44.6469 25.6413C41.9675 23.8908 38.0914 23.0859 33.1625 23.0859V24.0859ZM44.1 26.4785L43.553 27.3157C45.6885 28.7108 46.7621 30.7424 46.7621 33.5586H47.7621H48.7621C48.7621 30.1248 47.3943 27.4363 44.6469 25.6413L44.1 26.4785ZM47.7621 33.5586H46.7621C46.7621 34.5811 46.5873 35.5323 46.2436 36.4203L47.1762 36.7812L48.1087 37.1422C48.5463 36.012 48.7621 34.8148 48.7621 33.5586H47.7621ZM47.1762 36.7812L46.2477 36.4099C45.9098 37.2546 45.4444 37.9144 44.8624 38.417L45.516 39.1738L46.1696 39.9307C47.0199 39.1963 47.6613 38.261 48.1046 37.1526L47.1762 36.7812ZM45.516 39.1738L44.8828 38.3999C44.541 38.6795 44.2192 38.9244 43.9172 39.1358L44.4906 39.9551L45.0641 40.7743C45.4131 40.53 45.7749 40.2541 46.1493 39.9478L45.516 39.1738ZM44.4906 39.9551L43.9172 39.1358C43.6479 39.3244 43.3267 39.5073 42.9485 39.6819L43.3676 40.5898L43.7866 41.4978C44.2548 41.2817 44.6823 41.0415 45.0641 40.7743L44.4906 39.9551ZM43.3676 40.5898L42.983 39.6668C42.6353 39.8116 42.1995 39.9628 41.6694 40.1188L41.9516 41.0781L42.2337 42.0375C42.8104 41.8679 43.3186 41.6936 43.7522 41.5129L43.3676 40.5898ZM41.9516 41.0781L41.6533 40.1236C41.1474 40.2817 40.5412 40.4573 39.833 40.6505L40.0961 41.6152L40.3592 42.58C41.0833 42.3825 41.7141 42.2 42.2498 42.0326L41.9516 41.0781ZM40.0961 41.6152L39.8866 42.593C40.7807 42.7846 41.5345 42.9736 42.1525 43.159L42.4398 42.2012L42.7272 41.2433C42.0431 41.0381 41.2344 40.8365 40.3056 40.6374L40.0961 41.6152ZM42.4398 42.2012L42.1651 43.1627C42.8018 43.3446 43.3443 43.5517 43.7993 43.7792L44.2465 42.8848L44.6937 41.9903C44.107 41.697 43.4451 41.4484 42.7146 41.2396L42.4398 42.2012ZM44.2465 42.8848L43.8457 43.8009C44.3135 44.0056 44.7283 44.2355 45.0933 44.4882L45.6625 43.666L46.2317 42.8438C45.7504 42.5106 45.2211 42.2196 44.6473 41.9686L44.2465 42.8848ZM45.6625 43.666L45.0933 44.4882C45.4739 44.7517 45.8609 45.0636 46.2537 45.4262L46.932 44.6914L47.6103 43.9566C47.1568 43.538 46.6974 43.1662 46.2317 42.8438L45.6625 43.666ZM46.932 44.6914L46.266 45.4373C47.8642 46.8643 48.6664 48.6866 48.6664 50.9902H49.6664H50.6664C50.6664 48.1506 49.6457 45.7738 47.598 43.9455L46.932 44.6914ZM49.6664 50.9902H48.6664C48.6664 52.4178 48.3848 53.6612 47.8442 54.7422L48.7387 55.1895L49.6331 55.6367C50.3296 54.2437 50.6664 52.6877 50.6664 50.9902H49.6664ZM48.7387 55.1895L47.8442 54.7422C47.2993 55.8322 46.5083 56.7719 45.4531 57.5633L46.0531 58.3633L46.6531 59.1633C47.9417 58.1969 48.9411 57.0207 49.6331 55.6367L48.7387 55.1895ZM46.0531 58.3633L45.4676 57.5526C44.4092 58.317 43.1067 58.9221 41.5404 59.3521L41.8051 60.3164L42.0698 61.2807C43.8237 60.7993 45.3533 60.1022 46.6386 59.174L46.0531 58.3633ZM41.8051 60.3164L41.5404 59.3521C39.9823 59.7798 38.2018 60 36.1898 60V61V62C38.3446 62 40.3076 61.7645 42.0698 61.2807L41.8051 60.3164ZM36.1898 61V60H17.5375V61V62H36.1898V61ZM17.5375 61H18.5375V59.9746H17.5375H16.5375V61H17.5375ZM17.5375 59.9746L17.5661 60.9742C18.7296 60.941 19.7007 60.8572 20.459 60.7128L20.2719 59.7305L20.0848 58.7481C19.4758 58.8641 18.624 58.9432 17.5089 58.975L17.5375 59.9746ZM20.2719 59.7305L20.4935 60.7056C21.3168 60.5185 22.049 60.1986 22.6078 59.6864L21.932 58.9492L21.2563 58.2121C21.0339 58.416 20.6592 58.6169 20.0503 58.7553L20.2719 59.7305ZM21.932 58.9492L22.6078 59.6864C23.1801 59.1617 23.5271 58.4728 23.6918 57.6904L22.7133 57.4844L21.7347 57.2784C21.639 57.7329 21.4652 58.0206 21.2563 58.2121L21.932 58.9492ZM22.7133 57.4844L23.6939 57.6805C23.8418 56.9408 23.9086 56.0389 23.9086 54.9941H22.9086H21.9086C21.9086 55.9676 21.8452 56.7259 21.7327 57.2883L22.7133 57.4844ZM22.9086 54.9941H23.9086V30.1895H22.9086H21.9086V54.9941H22.9086ZM22.9086 30.1895H23.9086C23.9086 29.1169 23.8425 28.2088 23.6918 27.4932L22.7133 27.6992L21.7347 27.9052C21.8445 28.4266 21.9086 29.1787 21.9086 30.1895H22.9086ZM22.7133 27.6992L23.701 27.5433C23.5748 26.7436 23.243 26.0347 22.6566 25.4972L21.9809 26.2344L21.3051 26.9715C21.5 27.1501 21.6565 27.4179 21.7255 27.8552L22.7133 27.6992ZM21.9809 26.2344L22.6566 25.4972C22.0841 24.9725 21.3344 24.6699 20.4996 24.5181L20.3207 25.502L20.1418 26.4858C20.7393 26.5944 21.0963 26.7801 21.3051 26.9715L21.9809 26.2344ZM20.3207 25.502L20.5078 24.5196C19.7613 24.3774 18.7835 24.2767 17.593 24.2105L17.5375 25.209L17.482 26.2074C18.6353 26.2715 19.5129 26.3661 20.1336 26.4843L20.3207 25.502ZM17.5375 25.209H18.5375V24.0859H17.5375H16.5375V25.209H17.5375ZM17.5375 24.0859V25.0859H33.1625V24.0859V23.0859H17.5375V24.0859ZM28.5238 56.6543H27.5238C27.5238 57.7071 27.8058 58.7446 28.7015 59.3418L29.2562 58.5098L29.8109 57.6777C29.7301 57.6238 29.5238 57.4244 29.5238 56.6543H28.5238ZM29.2562 58.5098L28.7418 59.3673C29.1394 59.6059 29.6253 59.7432 30.1324 59.8262C30.6508 59.9111 31.2578 59.9492 31.9418 59.9492V58.9492V57.9492C31.3237 57.9492 30.8321 57.9141 30.4553 57.8525C30.0673 57.789 29.8614 57.7066 29.7707 57.6523L29.2562 58.5098ZM31.9418 58.9492V59.9492C32.9288 59.9492 33.8064 59.9328 34.5731 59.8994L34.5297 58.9004L34.4862 57.9013C33.7556 57.9331 32.9079 57.9492 31.9418 57.9492V58.9492ZM34.5297 58.9004L34.6127 59.8969C35.4126 59.8303 36.1375 59.7463 36.7853 59.644L36.6293 58.6562L36.4733 57.6685C35.8841 57.7615 35.2093 57.8403 34.4466 57.9038L34.5297 58.9004ZM36.6293 58.6562L36.8254 59.6368C37.5195 59.498 38.1585 59.3217 38.7382 59.1043L38.3871 58.168L38.036 57.2316C37.5741 57.4049 37.0412 57.5541 36.4332 57.6757L36.6293 58.6562ZM38.3871 58.168L38.7382 59.1043C39.3062 58.8913 39.8433 58.6411 40.3481 58.3526L39.852 57.4844L39.3558 56.6161C38.9492 56.8485 38.5097 57.054 38.036 57.2316L38.3871 58.168ZM39.852 57.4844L40.3481 58.3526C42.9878 56.8442 44.2699 54.3318 44.2699 51.0391H43.2699H42.2699C42.2699 53.7359 41.2734 55.5204 39.3558 56.6161L39.852 57.4844ZM43.2699 51.0391H44.2699C44.2699 49.1265 43.8301 47.4466 42.8891 46.0589C41.9471 44.6698 40.5571 43.6532 38.7943 42.9766L38.4359 43.9102L38.0776 44.8437C39.5374 45.4041 40.5644 46.1942 41.2338 47.1813C41.9041 48.1699 42.2699 49.436 42.2699 51.0391H43.2699ZM38.4359 43.9102L38.7871 42.9738C38.2131 42.7586 37.5943 42.5826 36.933 42.4433L36.727 43.4219L36.5209 44.4004C37.0966 44.5216 37.6171 44.6711 38.0848 44.8465L38.4359 43.9102ZM36.727 43.4219L36.9439 42.4457C36.3029 42.3032 35.5727 42.2002 34.7592 42.1324L34.6762 43.1289L34.5931 44.1255C35.3421 44.1879 35.9792 44.2801 36.51 44.3981L36.727 43.4219ZM34.6762 43.1289L34.8055 42.1373C34.016 42.0343 33.1032 41.9674 32.0717 41.9341L32.0395 42.9336L32.0072 43.9331C32.9939 43.9649 33.839 44.0282 34.5468 44.1205L34.6762 43.1289ZM32.0395 42.9336L32.1038 41.9357C31.0678 41.8688 29.8736 41.8359 28.5238 41.8359V42.8359V43.8359C29.8433 43.8359 30.9929 43.8682 31.9751 43.9315L32.0395 42.9336ZM28.5238 42.8359H27.5238V56.6543H28.5238H29.5238V42.8359H28.5238ZM33.8949 40.5898V41.5898C36.6588 41.5898 38.9367 40.9947 40.5809 39.6564L39.9496 38.8809L39.3183 38.1053C38.1631 39.0456 36.4045 39.5898 33.8949 39.5898V40.5898ZM39.9496 38.8809L40.5828 39.6548C42.2934 38.2553 43.098 36.251 43.098 33.8027H42.098H41.098C41.098 35.7815 40.4704 37.1627 39.3164 38.1069L39.9496 38.8809ZM42.098 33.8027H43.098C43.098 31.0269 42.1767 28.7954 40.2153 27.2955L39.6078 28.0898L39.0004 28.8842C40.3593 29.9234 41.098 31.5005 41.098 33.8027H42.098ZM39.6078 28.0898L40.2153 27.2955C38.3073 25.8365 35.5947 25.1855 32.2348 25.1855V26.1855V27.1855C35.3853 27.1855 37.588 27.8041 39.0004 28.8842L39.6078 28.0898ZM32.2348 26.1855V25.1855H29.7934V26.1855V27.1855H32.2348V26.1855ZM29.7934 26.1855V25.1855C29.1334 25.1855 28.4888 25.4152 28.0469 25.9931C27.6437 26.5203 27.5238 27.1931 27.5238 27.8457H28.5238H29.5238C29.5238 27.3916 29.6155 27.2342 29.6356 27.208C29.6388 27.2038 29.6355 27.2069 29.6375 27.206C29.6454 27.2026 29.6895 27.1855 29.7934 27.1855V26.1855ZM28.5238 27.8457H27.5238V40.5898H28.5238H29.5238V27.8457H28.5238ZM28.5238 40.5898V41.5898H33.8949V40.5898V39.5898H28.5238V40.5898ZM77.1078 61V62H77.7574L78.0214 61.4065L77.1078 61ZM76.2777 61L75.3685 61.4162L75.6357 62H76.2777V61ZM62.2641 30.3848L63.1733 29.9686L61.2641 30.3848H62.2641ZM62.4594 56.3125L61.4694 56.4539L61.4723 56.4743L61.4761 56.4946L62.4594 56.3125ZM67.5375 59.9746H68.5375V59.0334L67.598 58.9764L67.5375 59.9746ZM67.5375 61V62H68.5375V61H67.5375ZM54.4516 61H53.4516V62H54.4516V61ZM54.4516 59.9746L54.3662 58.9783L53.4516 59.0567V59.9746H54.4516ZM57.1859 59.5352L57.4607 60.4967L57.475 60.4926L57.4891 60.4881L57.1859 59.5352ZM58.7973 58.4121L57.9973 57.8121L57.9849 57.8286L57.9732 57.8456L58.7973 58.4121ZM59.5785 56.3125L60.5677 56.4591L60.5685 56.4539L59.5785 56.3125ZM59.5785 27.748L58.5908 27.904L58.5947 27.9292L58.6 27.9541L59.5785 27.748ZM58.8461 26.2832L58.139 26.9903L58.1544 27.0057L58.1704 27.0204L58.8461 26.2832ZM57.2836 25.5508L57.052 26.5236L57.0741 26.5289L57.0965 26.5331L57.2836 25.5508ZM54.5492 25.209H53.5492V26.1535L54.4922 26.2074L54.5492 25.209ZM54.5492 24.0859V23.0859H53.5492V24.0859H54.5492ZM65.5844 24.0859L66.4943 23.6712L66.2275 23.0859H65.5844V24.0859ZM78.4262 52.2598L77.5162 52.6745L78.4421 54.7057L79.3414 52.6627L78.4262 52.2598ZM90.8285 24.0859V23.0859H90.1761L89.9133 23.683L90.8285 24.0859ZM101.864 24.0859H102.864V23.0859H101.864V24.0859ZM101.864 25.209L101.926 26.207L102.864 26.1484V25.209H101.864ZM97.1762 27.7969L96.1976 27.5909L96.1924 27.6158L96.1884 27.6409L97.1762 27.7969ZM97.225 57.3867L96.2464 57.5927L97.225 57.3867ZM97.9086 58.8516L97.1687 59.5242L97.1847 59.5418L97.2015 59.5587L97.9086 58.8516ZM99.3734 59.6328L99.1189 60.6L99.1309 60.603L99.3734 59.6328ZM101.864 59.9746H102.864V59.037L101.928 58.9767L101.864 59.9746ZM101.864 61V62H102.864V61H101.864ZM86.2387 61H85.2387V62H86.2387V61ZM86.2387 59.9746L86.1799 58.9763L85.2387 59.0317V59.9746H86.2387ZM88.8754 59.6328L88.6438 58.6599L88.6329 58.6627L88.8754 59.6328ZM90.4379 58.8027L91.175 59.4785L91.1885 59.4638L91.2013 59.4487L90.4379 58.8027ZM91.1215 57.1426L90.1376 56.9637L90.1342 56.9824L90.1315 57.0012L91.1215 57.1426ZM91.3168 29.0664H92.3168L90.4032 28.6599L91.3168 29.0664ZM77.1078 61V60H76.2777V61V62H77.1078V61ZM76.2777 61L77.187 60.5838L63.1733 29.9686L62.2641 30.3848L61.3548 30.801L75.3685 61.4162L76.2777 61ZM62.2641 30.3848H61.2641V52.7969H62.2641H63.2641V30.3848H62.2641ZM62.2641 52.7969H61.2641C61.2641 54.2536 61.3299 55.4774 61.4694 56.4539L62.4594 56.3125L63.4493 56.1711C63.3284 55.3247 63.2641 54.2047 63.2641 52.7969H62.2641ZM62.4594 56.3125L61.4761 56.4946C61.657 57.4716 61.9785 58.3308 62.4895 59.0121L63.2895 58.4121L64.0895 57.8121C63.8192 57.4517 63.5872 56.9112 63.4427 56.1304L62.4594 56.3125ZM63.2895 58.4121L62.4895 59.0121C63.0151 59.7129 63.7295 60.1988 64.5846 60.4838L64.9008 59.5352L65.217 58.5865C64.7049 58.4158 64.3451 58.153 64.0895 57.8121L63.2895 58.4121ZM64.9008 59.5352L64.5846 60.4838C65.3807 60.7492 66.3541 60.9047 67.477 60.9728L67.5375 59.9746L67.598 58.9764C66.5725 58.9143 65.788 58.7768 65.217 58.5865L64.9008 59.5352ZM67.5375 59.9746H66.5375V61H67.5375H68.5375V59.9746H67.5375ZM67.5375 61V60H54.4516V61V62H67.5375V61ZM54.4516 61H55.4516V59.9746H54.4516H53.4516V61H54.4516ZM54.4516 59.9746L54.537 60.971C55.7068 60.8707 56.6896 60.717 57.4607 60.4967L57.1859 59.5352L56.9112 58.5736C56.3151 58.7439 55.475 58.8832 54.3662 58.9783L54.4516 59.9746ZM57.1859 59.5352L57.4891 60.4881C58.3755 60.206 59.1148 59.7154 59.6213 58.9786L58.7973 58.4121L57.9732 57.8456C57.7636 58.1505 57.4286 58.4085 56.8827 58.5822L57.1859 59.5352ZM58.7973 58.4121L59.5973 59.0121C60.1174 58.3185 60.4216 57.4452 60.5677 56.459L59.5785 56.3125L58.5893 56.166C58.475 56.9376 58.2583 57.464 57.9973 57.8121L58.7973 58.4121ZM59.5785 56.3125L60.5685 56.4539C60.708 55.4774 60.7738 54.2536 60.7738 52.7969H59.7738H58.7738C58.7738 54.2047 58.7095 55.3247 58.5886 56.1711L59.5785 56.3125ZM59.7738 52.7969H60.7738V30.1895H59.7738H58.7738V52.7969H59.7738ZM59.7738 30.1895H60.7738C60.7738 29.1469 60.7074 28.256 60.5571 27.542L59.5785 27.748L58.6 27.9541C58.7101 28.477 58.7738 29.2138 58.7738 30.1895H59.7738ZM59.5785 27.748L60.5663 27.5921C60.44 26.7924 60.1082 26.0836 59.5218 25.546L58.8461 26.2832L58.1704 27.0204C58.3652 27.199 58.5217 27.4667 58.5908 27.904L59.5785 27.748ZM58.8461 26.2832L59.5532 25.5761C59.0093 25.0322 58.2797 24.7225 57.4707 24.5684L57.2836 25.5508L57.0965 26.5331C57.6547 26.6394 57.9668 26.8181 58.139 26.9903L58.8461 26.2832ZM57.2836 25.5508L57.5152 24.578C56.7501 24.3958 55.7729 24.2773 54.6063 24.2106L54.5492 25.209L54.4922 26.2074C55.6041 26.2709 56.4499 26.3802 57.052 26.5236L57.2836 25.5508ZM54.5492 25.209H55.5492V24.0859H54.5492H53.5492V25.209H54.5492ZM54.5492 24.0859V25.0859H65.5844V24.0859V23.0859H54.5492V24.0859ZM65.5844 24.0859L64.6744 24.5007L77.5162 52.6745L78.4262 52.2598L79.3361 51.845L66.4943 23.6712L65.5844 24.0859ZM78.4262 52.2598L79.3414 52.6627L91.7438 24.4888L90.8285 24.0859L89.9133 23.683L77.5109 51.8569L78.4262 52.2598ZM90.8285 24.0859V25.0859H101.864V24.0859V23.0859H90.8285V24.0859ZM101.864 24.0859H100.864V25.209H101.864H102.864V24.0859H101.864ZM101.864 25.209L101.801 24.2109C100.73 24.2779 99.8271 24.3974 99.1189 24.5837L99.3734 25.5508L99.6279 26.5179C100.157 26.3787 100.914 26.2703 101.926 26.207L101.864 25.209ZM99.3734 25.5508L99.1189 24.5837C98.3736 24.7798 97.7136 25.1128 97.2015 25.6249L97.9086 26.332L98.6157 27.0391C98.8197 26.8351 99.1363 26.6472 99.6279 26.5179L99.3734 25.5508ZM97.9086 26.332L97.2015 25.6249C96.6758 26.1506 96.3579 26.8297 96.1976 27.5909L97.1762 27.7969L98.1547 28.0029C98.2549 27.5271 98.4253 27.2296 98.6157 27.0391L97.9086 26.332ZM97.1762 27.7969L96.1884 27.6409C96.0794 28.3312 96.0297 29.1861 96.0297 30.1895H97.0297H98.0297C98.0297 29.2397 98.0776 28.4996 98.1639 27.9528L97.1762 27.7969ZM97.0297 30.1895H96.0297V54.9941H97.0297H98.0297V30.1895H97.0297ZM97.0297 54.9941H96.0297C96.0297 56.0068 96.0965 56.8804 96.2464 57.5927L97.225 57.3867L98.2035 57.1807C98.0931 56.6561 98.0297 55.9346 98.0297 54.9941H97.0297ZM97.225 57.3867L96.2464 57.5927C96.4024 58.3333 96.6923 59.0002 97.1687 59.5242L97.9086 58.8516L98.6485 58.1789C98.4739 57.9868 98.3081 57.6771 98.2035 57.1807L97.225 57.3867ZM97.9086 58.8516L97.2015 59.5587C97.7136 60.0708 98.3736 60.4037 99.1189 60.5999L99.3734 59.6328L99.6279 58.6657C99.1363 58.5364 98.8197 58.3484 98.6157 58.1445L97.9086 58.8516ZM99.3734 59.6328L99.1309 60.603C99.8617 60.7857 100.757 60.9053 101.799 60.9725L101.864 59.9746L101.928 58.9767C100.952 58.9137 100.187 58.8055 99.616 58.6627L99.3734 59.6328ZM101.864 59.9746H100.864V61H101.864H102.864V59.9746H101.864ZM101.864 61V60H86.2387V61V62H101.864V61ZM86.2387 61H87.2387V59.9746H86.2387H85.2387V61H86.2387ZM86.2387 59.9746L86.2974 60.9729C87.4317 60.9062 88.3805 60.7873 89.1179 60.603L88.8754 59.6328L88.6329 58.6627C88.0682 58.8038 87.2592 58.9129 86.1799 58.9763L86.2387 59.9746ZM88.8754 59.6328L89.107 60.6056C89.9227 60.4114 90.6443 60.0575 91.175 59.4785L90.4379 58.8027L89.7007 58.127C89.5153 58.3293 89.1953 58.5287 88.6438 58.66L88.8754 59.6328ZM90.4379 58.8027L91.2013 59.4487C91.7075 58.8505 91.9937 58.1081 92.1114 57.284L91.1215 57.1426L90.1315 57.0012C90.054 57.5442 89.8845 57.9086 89.6745 58.1568L90.4379 58.8027ZM91.1215 57.1426L92.1054 57.3215C92.2507 56.5218 92.3168 55.5109 92.3168 54.3105H91.3168H90.3168C90.3168 55.4539 90.2526 56.3311 90.1376 56.9637L91.1215 57.1426ZM91.3168 54.3105H92.3168V29.0664H91.3168H90.3168V54.3105H91.3168ZM91.3168 29.0664L90.4032 28.6599L76.1942 60.5935L77.1078 61L78.0214 61.4065L92.2304 29.4729L91.3168 29.0664ZM136.678 35.9023L135.717 36.1771L135.924 36.9023H136.678V35.9023ZM135.897 33.5586L134.962 33.9146L134.965 33.9223L134.968 33.93L135.897 33.5586ZM135.067 31.752L134.162 32.1778L134.177 32.2106L134.195 32.2422L135.067 31.752ZM134.139 30.2871L133.346 30.8968L133.361 30.9153L133.376 30.9331L134.139 30.2871ZM132.967 28.9688L132.25 29.6655L132.255 29.6707L132.26 29.6759L132.967 28.9688ZM129.159 26.4297L128.772 27.3521L128.785 27.3575L128.798 27.3625L129.159 26.4297ZM119.149 26.7227L118.723 25.8178L118.716 25.8211L119.149 26.7227ZM114.95 30.0918L114.169 29.4671L114.167 29.4693L114.95 30.0918ZM116.463 56.4102L115.82 57.1759L115.829 57.1836L115.839 57.191L116.463 56.4102ZM137.655 53.7246L138.362 53.0175L137.671 52.3272L136.965 53.0007L137.655 53.7246ZM138.631 54.7012L139.43 55.303L139.953 54.6088L139.338 53.9941L138.631 54.7012ZM132.137 59.9258L131.712 59.0204L131.708 59.0225L132.137 59.9258ZM110.018 56.6055L109.304 57.3056L109.311 57.3126L110.018 56.6055ZM106.209 50.6484L105.275 51.0039L105.279 51.0153L106.209 50.6484ZM106.551 34.2422L107.47 34.6375L107.472 34.6333L106.551 34.2422ZM111.434 27.6992L110.806 26.9213L110.801 26.9253L111.434 27.6992ZM117.147 24.5254L117.48 25.4682L117.493 25.4635L117.147 24.5254ZM131.746 24.7207L132.083 23.779L132.075 23.776L132.066 23.7732L131.746 24.7207ZM135.36 24.7207L134.75 23.9281L134.735 23.94L134.72 23.9525L135.36 24.7207ZM136.239 23.3535V22.3535H135.479L135.275 23.0859L136.239 23.3535ZM137.411 23.3535L138.41 23.3108L138.369 22.3535H137.411V23.3535ZM137.948 35.9023V36.9023H138.991L138.947 35.8596L137.948 35.9023ZM136.678 35.9023L137.64 35.6276C137.373 34.694 137.102 33.8787 136.825 33.1872L135.897 33.5586L134.968 33.93C135.213 34.5406 135.463 35.2878 135.717 36.1771L136.678 35.9023ZM135.897 33.5586L136.831 33.2026C136.557 32.4826 136.26 31.834 135.938 31.2617L135.067 31.752L134.195 32.2422C134.459 32.7116 134.716 33.2674 134.962 33.9146L135.897 33.5586ZM135.067 31.752L135.972 31.3262C135.678 30.7016 135.323 30.1377 134.902 29.6412L134.139 30.2871L133.376 30.9331C133.672 31.2829 133.935 31.6955 134.162 32.1778L135.067 31.752ZM134.139 30.2871L134.932 29.6774C134.575 29.2138 134.155 28.7419 133.674 28.2616L132.967 28.9688L132.26 29.6759C132.691 30.107 133.052 30.5141 133.346 30.8968L134.139 30.2871ZM132.967 28.9688L133.684 28.272C132.481 27.0328 131.091 26.1041 129.519 25.4969L129.159 26.4297L128.798 27.3625C130.091 27.8621 131.24 28.626 132.25 29.6655L132.967 28.9688ZM129.159 26.4297L129.545 25.5072C128.016 24.8675 126.387 24.5508 124.666 24.5508V25.5508V26.5508C126.136 26.5508 127.501 26.82 128.772 27.3521L129.159 26.4297ZM124.666 25.5508V24.5508C122.516 24.5508 120.529 24.9679 118.723 25.8178L119.149 26.7227L119.575 27.6275C121.089 26.9149 122.78 26.5508 124.666 26.5508V25.5508ZM119.149 26.7227L118.716 25.8211C116.948 26.6699 115.431 27.8897 114.169 29.4671L114.95 30.0918L115.73 30.7165C116.812 29.3642 118.095 28.3379 119.582 27.6242L119.149 26.7227ZM114.95 30.0918L114.167 29.4693C112.937 31.0161 112.004 32.8759 111.355 35.0277L112.313 35.3164L113.27 35.6051C113.858 33.6554 114.684 32.0321 115.732 30.7143L114.95 30.0918ZM112.313 35.3164L111.355 35.0277C110.704 37.1864 110.385 39.5642 110.385 42.1523H111.385H112.385C112.385 39.7274 112.684 37.5479 113.27 35.6051L112.313 35.3164ZM111.385 42.1523H110.385C110.385 45.4949 110.836 48.4623 111.763 51.036L112.704 50.6973L113.644 50.3585C112.813 48.0495 112.385 45.3202 112.385 42.1523H111.385ZM112.704 50.6973L111.763 51.036C112.688 53.607 114.03 55.6725 115.82 57.1759L116.463 56.4102L117.106 55.6445C115.641 54.4134 114.477 52.6704 113.644 50.3585L112.704 50.6973ZM116.463 56.4102L115.839 57.191C118.472 59.2981 121.611 60.3398 125.204 60.3398V59.3398V58.3398C122.025 58.3398 119.337 57.4285 117.088 55.6293L116.463 56.4102ZM125.204 59.3398V60.3398C127.645 60.3398 129.918 59.8749 132.01 58.9334L131.6 58.0215L131.19 57.1096C129.375 57.9259 127.385 58.3398 125.204 58.3398V59.3398ZM131.6 58.0215L132.01 58.9334C134.095 57.9952 136.206 56.4871 138.345 54.4485L137.655 53.7246L136.965 53.0007C134.937 54.9335 133.011 56.29 131.19 57.1096L131.6 58.0215ZM137.655 53.7246L136.948 54.4317L137.924 55.4083L138.631 54.7012L139.338 53.9941L138.362 53.0175L137.655 53.7246ZM138.631 54.7012L137.833 54.0993C136.242 56.2106 134.207 57.8501 131.712 59.0205L132.137 59.9258L132.562 60.8311C135.341 59.5275 137.636 57.6839 139.43 55.303L138.631 54.7012ZM132.137 59.9258L131.708 59.0225C129.252 60.1893 126.503 60.7812 123.446 60.7812V61.7812V62.7812C126.768 62.7812 129.814 62.1362 132.566 60.8291L132.137 59.9258ZM123.446 61.7812V60.7812C120.79 60.7812 118.395 60.3442 116.249 59.4856L115.877 60.4141L115.506 61.3425C117.917 62.3069 120.568 62.7812 123.446 62.7812V61.7812ZM115.877 60.4141L116.249 59.4856C114.087 58.621 112.251 57.424 110.725 55.8984L110.018 56.6055L109.311 57.3126C111.04 59.0422 113.11 60.3842 115.506 61.3425L115.877 60.4141ZM110.018 56.6055L110.732 55.9054C109.204 54.3472 108.005 52.477 107.14 50.2816L106.209 50.6484L105.279 51.0153C106.236 53.4423 107.576 55.5435 109.304 57.3055L110.018 56.6055ZM106.209 50.6484L107.144 50.293C106.314 48.1106 105.891 45.6616 105.891 42.9336H104.891H103.891C103.891 45.8696 104.347 48.5639 105.275 51.0039L106.209 50.6484ZM104.891 42.9336H105.891C105.891 39.8265 106.424 37.0668 107.47 34.6375L106.551 34.2422L105.633 33.8469C104.465 36.5608 103.891 39.5954 103.891 42.9336H104.891ZM106.551 34.2422L107.472 34.6333C108.516 32.1751 110.047 30.1265 112.067 28.4732L111.434 27.6992L110.801 26.9253C108.525 28.7876 106.8 31.1009 105.631 33.851L106.551 34.2422ZM111.434 27.6992L112.062 28.4772C113.664 27.1835 115.468 26.1802 117.48 25.4681L117.147 24.5254L116.813 23.5827C114.594 24.368 112.589 25.4806 110.806 26.9213L111.434 27.6992ZM117.147 24.5254L117.493 25.4635C119.504 24.7211 121.519 24.3535 123.543 24.3535V23.3535V22.3535C121.271 22.3535 119.022 22.7672 116.8 23.5873L117.147 24.5254ZM123.543 23.3535V24.3535C126.198 24.3535 128.825 24.7905 131.427 25.6682L131.746 24.7207L132.066 23.7732C129.265 22.828 126.422 22.3535 123.543 22.3535V23.3535ZM131.746 24.7207L131.41 25.6624C132.361 26.0021 133.221 26.209 133.944 26.209V25.209V24.209C133.56 24.209 132.955 24.0903 132.083 23.779L131.746 24.7207ZM133.944 25.209V26.209C134.709 26.209 135.413 25.9778 136 25.4889L135.36 24.7207L134.72 23.9525C134.525 24.1146 134.285 24.209 133.944 24.209V25.209ZM135.36 24.7207L135.969 25.5133C136.588 25.0378 136.99 24.3855 137.202 23.6212L136.239 23.3535L135.275 23.0859C135.162 23.4934 134.978 23.7526 134.75 23.9281L135.36 24.7207ZM136.239 23.3535V24.3535H137.411V23.3535V22.3535H136.239V23.3535ZM137.411 23.3535L136.411 23.3963L136.949 35.9451L137.948 35.9023L138.947 35.8596L138.41 23.3108L137.411 23.3535ZM137.948 35.9023V34.9023H136.678V35.9023V36.9023H137.948V35.9023Z" fill="black" mask="url(#path-1-outside-1_2365_12)"/>
<ellipse cx="155.748" cy="61" rx="10.2516" ry="10" fill="#1727D7"/>
</g>
<g filter="url(#filter1_d_2365_12)">
<path d="M117.996 42.4688C117.746 42.4688 117.541 42.4818 117.379 42.5078C117.223 42.5339 117.093 42.5885 116.988 42.6719C116.889 42.7552 116.809 42.8724 116.746 43.0234C116.689 43.1693 116.634 43.3646 116.582 43.6094H116.363L116.418 42.0938H121.449L121.504 43.6094H121.285C121.233 43.3646 121.176 43.1693 121.113 43.0234C121.056 42.8724 120.978 42.7552 120.879 42.6719C120.78 42.5885 120.65 42.5339 120.488 42.5078C120.327 42.4818 120.119 42.4688 119.863 42.4688H119.387V47.0391C119.387 47.2005 119.397 47.3307 119.418 47.4297C119.439 47.5286 119.478 47.6068 119.535 47.6641C119.598 47.7214 119.684 47.763 119.793 47.7891C119.908 47.8099 120.056 47.8255 120.238 47.8359V48H117.645V47.8359C117.827 47.8255 117.973 47.8099 118.082 47.7891C118.192 47.763 118.275 47.7188 118.332 47.6562C118.395 47.5885 118.434 47.4974 118.449 47.3828C118.47 47.2682 118.481 47.1172 118.481 46.9297V42.4688H117.996ZM126.822 48H122.01V47.8359C122.171 47.8255 122.301 47.8073 122.4 47.7812C122.504 47.7552 122.583 47.7135 122.635 47.6562C122.692 47.599 122.731 47.5208 122.752 47.4219C122.773 47.3229 122.783 47.1953 122.783 47.0391V43.0703C122.783 42.9141 122.773 42.7865 122.752 42.6875C122.736 42.5885 122.7 42.5104 122.643 42.4531C122.585 42.3958 122.504 42.3542 122.4 42.3281C122.301 42.3021 122.171 42.2839 122.01 42.2734V42.0938H126.744L126.76 43.375H126.549C126.507 43.1719 126.46 43.0104 126.408 42.8906C126.356 42.7656 126.281 42.6693 126.182 42.6016C126.088 42.5339 125.96 42.4896 125.799 42.4688C125.643 42.4479 125.439 42.4375 125.189 42.4375H123.986C123.866 42.4375 123.786 42.4557 123.744 42.4922C123.708 42.5286 123.689 42.612 123.689 42.7422V44.7188H125.057C125.239 44.7188 125.387 44.7083 125.502 44.6875C125.616 44.6667 125.708 44.6276 125.775 44.5703C125.848 44.5078 125.903 44.4219 125.939 44.3125C125.976 44.2031 126.01 44.0573 126.041 43.875H126.252V45.9453H126.041C126.01 45.7578 125.976 45.6094 125.939 45.5C125.903 45.3854 125.851 45.2995 125.783 45.2422C125.715 45.1797 125.624 45.138 125.51 45.1172C125.395 45.0964 125.244 45.0859 125.057 45.0859H123.689V47.2891C123.689 47.3776 123.695 47.4427 123.705 47.4844C123.715 47.526 123.734 47.5573 123.76 47.5781C123.801 47.6042 123.9 47.6276 124.057 47.6484C124.218 47.6641 124.408 47.6719 124.627 47.6719H124.877C125.195 47.6719 125.46 47.6562 125.674 47.625C125.893 47.5938 126.077 47.5339 126.228 47.4453C126.385 47.3568 126.52 47.237 126.635 47.0859C126.749 46.9349 126.861 46.737 126.971 46.4922H127.228L126.822 48ZM132.914 43.9844C132.872 43.8385 132.83 43.7135 132.789 43.6094C132.747 43.5 132.703 43.4036 132.656 43.3203C132.614 43.2318 132.565 43.1536 132.507 43.0859C132.455 43.0182 132.393 42.9479 132.32 42.875C132.143 42.6927 131.94 42.5573 131.711 42.4688C131.487 42.375 131.247 42.3281 130.992 42.3281C130.669 42.3281 130.375 42.3906 130.109 42.5156C129.849 42.6406 129.625 42.8203 129.437 43.0547C129.255 43.2839 129.114 43.5625 129.015 43.8906C128.916 44.2188 128.867 44.5833 128.867 44.9844C128.867 45.5052 128.937 45.9609 129.078 46.3516C129.218 46.7422 129.419 47.0469 129.679 47.2656C130.07 47.5781 130.536 47.7344 131.078 47.7344C131.448 47.7344 131.789 47.6641 132.101 47.5234C132.414 47.3828 132.737 47.1536 133.07 46.8359L133.226 46.9922C132.955 47.3516 132.609 47.6302 132.187 47.8281C131.771 48.026 131.307 48.125 130.797 48.125C130.354 48.125 129.95 48.0521 129.586 47.9062C129.221 47.7604 128.909 47.5573 128.648 47.2969C128.388 47.0312 128.185 46.7135 128.039 46.3438C127.898 45.974 127.828 45.5625 127.828 45.1094C127.828 44.5938 127.916 44.1302 128.093 43.7188C128.271 43.3021 128.531 42.9531 128.875 42.6719C129.146 42.4531 129.45 42.2839 129.789 42.1641C130.127 42.0391 130.468 41.9766 130.812 41.9766C131.255 41.9766 131.692 42.0495 132.125 42.1953C132.271 42.2474 132.388 42.2734 132.476 42.2734C132.565 42.2734 132.64 42.2474 132.703 42.1953C132.771 42.1432 132.817 42.0703 132.843 41.9766H133.031L133.117 43.9844H132.914ZM138.341 44.8047V43.0703C138.341 42.9089 138.331 42.7812 138.31 42.6875C138.294 42.5885 138.258 42.5104 138.201 42.4531C138.149 42.3958 138.07 42.3568 137.966 42.3359C137.862 42.3099 137.724 42.2891 137.552 42.2734V42.0938H140.029V42.2734C139.857 42.2891 139.719 42.3099 139.615 42.3359C139.511 42.3568 139.43 42.3958 139.372 42.4531C139.32 42.5104 139.287 42.5885 139.271 42.6875C139.255 42.7812 139.247 42.9089 139.247 43.0703V47.0391C139.247 47.1953 139.255 47.3229 139.271 47.4219C139.292 47.5156 139.331 47.5911 139.388 47.6484C139.445 47.7057 139.524 47.7474 139.622 47.7734C139.727 47.7995 139.862 47.8203 140.029 47.8359V48H137.552V47.8359C137.724 47.8255 137.862 47.8099 137.966 47.7891C138.07 47.763 138.149 47.7188 138.201 47.6562C138.258 47.5885 138.294 47.4974 138.31 47.3828C138.331 47.2682 138.341 47.1172 138.341 46.9297V45.1953H135.63V47.0391C135.63 47.1953 135.638 47.3229 135.654 47.4219C135.675 47.5156 135.714 47.5911 135.771 47.6484C135.828 47.7057 135.909 47.7474 136.013 47.7734C136.117 47.7995 136.253 47.8203 136.419 47.8359V48H133.935V47.8359C134.112 47.8255 134.253 47.8099 134.357 47.7891C134.461 47.763 134.539 47.7188 134.591 47.6562C134.649 47.5885 134.685 47.4974 134.701 47.3828C134.716 47.2682 134.724 47.1172 134.724 46.9297V43.0703C134.724 42.9089 134.714 42.7812 134.693 42.6875C134.677 42.5885 134.641 42.5104 134.583 42.4531C134.531 42.3958 134.453 42.3568 134.349 42.3359C134.245 42.3099 134.107 42.2891 133.935 42.2734V42.0938H136.419V42.2734C136.247 42.2891 136.109 42.3099 136.005 42.3359C135.901 42.3568 135.82 42.3958 135.763 42.4531C135.711 42.5104 135.675 42.5885 135.654 42.6875C135.638 42.7812 135.63 42.9089 135.63 43.0703V44.8047H138.341ZM147.954 48H143.142V47.8359C143.303 47.8255 143.433 47.8073 143.532 47.7812C143.636 47.7552 143.714 47.7135 143.767 47.6562C143.824 47.599 143.863 47.5208 143.884 47.4219C143.905 47.3229 143.915 47.1953 143.915 47.0391V43.0703C143.915 42.9141 143.905 42.7865 143.884 42.6875C143.868 42.5885 143.832 42.5104 143.774 42.4531C143.717 42.3958 143.636 42.3542 143.532 42.3281C143.433 42.3021 143.303 42.2839 143.142 42.2734V42.0938H147.876L147.892 43.375H147.681C147.639 43.1719 147.592 43.0104 147.54 42.8906C147.488 42.7656 147.412 42.6693 147.313 42.6016C147.22 42.5339 147.092 42.4896 146.931 42.4688C146.774 42.4479 146.571 42.4375 146.321 42.4375H145.118C144.998 42.4375 144.918 42.4557 144.876 42.4922C144.839 42.5286 144.821 42.612 144.821 42.7422V44.7188H146.188C146.371 44.7188 146.519 44.7083 146.634 44.6875C146.748 44.6667 146.839 44.6276 146.907 44.5703C146.98 44.5078 147.035 44.4219 147.071 44.3125C147.108 44.2031 147.142 44.0573 147.173 43.875H147.384V45.9453H147.173C147.142 45.7578 147.108 45.6094 147.071 45.5C147.035 45.3854 146.983 45.2995 146.915 45.2422C146.847 45.1797 146.756 45.138 146.642 45.1172C146.527 45.0964 146.376 45.0859 146.188 45.0859H144.821V47.2891C144.821 47.3776 144.826 47.4427 144.837 47.4844C144.847 47.526 144.866 47.5573 144.892 47.5781C144.933 47.6042 145.032 47.6276 145.188 47.6484C145.35 47.6641 145.54 47.6719 145.759 47.6719H146.009C146.326 47.6719 146.592 47.6562 146.806 47.625C147.024 47.5938 147.209 47.5339 147.36 47.4453C147.517 47.3568 147.652 47.237 147.767 47.0859C147.881 46.9349 147.993 46.737 148.103 46.4922H148.36L147.954 48ZM150.499 42.4688C150.249 42.4688 150.043 42.4818 149.882 42.5078C149.725 42.5339 149.595 42.5885 149.491 42.6719C149.392 42.7552 149.311 42.8724 149.249 43.0234C149.191 43.1693 149.137 43.3646 149.085 43.6094H148.866L148.921 42.0938H153.952L154.007 43.6094H153.788C153.736 43.3646 153.678 43.1693 153.616 43.0234C153.559 42.8724 153.481 42.7552 153.382 42.6719C153.283 42.5885 153.152 42.5339 152.991 42.5078C152.829 42.4818 152.621 42.4688 152.366 42.4688H151.889V47.0391C151.889 47.2005 151.9 47.3307 151.921 47.4297C151.941 47.5286 151.981 47.6068 152.038 47.6641C152.1 47.7214 152.186 47.763 152.296 47.7891C152.41 47.8099 152.559 47.8255 152.741 47.8359V48H150.147V47.8359C150.329 47.8255 150.475 47.8099 150.585 47.7891C150.694 47.763 150.777 47.7188 150.835 47.6562C150.897 47.5885 150.936 47.4974 150.952 47.3828C150.973 47.2682 150.983 47.1172 150.983 46.9297V42.4688H150.499ZM158.01 43.0703C158.01 42.9036 158 42.7708 157.979 42.6719C157.963 42.5729 157.924 42.4948 157.862 42.4375C157.799 42.3802 157.711 42.3411 157.596 42.3203C157.481 42.2995 157.33 42.2839 157.143 42.2734V42.0938H159.791V42.2734C159.604 42.2786 159.453 42.2943 159.338 42.3203C159.224 42.3411 159.135 42.3802 159.072 42.4375C159.01 42.4948 158.968 42.5755 158.947 42.6797C158.927 42.7786 158.916 42.9089 158.916 43.0703V47.0391C158.916 47.2005 158.927 47.3333 158.947 47.4375C158.974 47.5365 159.018 47.6146 159.08 47.6719C159.143 47.7292 159.231 47.7708 159.346 47.7969C159.461 47.8177 159.609 47.8307 159.791 47.8359V48H157.143V47.8359C157.33 47.8307 157.481 47.8177 157.596 47.7969C157.711 47.7708 157.796 47.7292 157.854 47.6719C157.916 47.6146 157.958 47.5365 157.979 47.4375C158 47.3385 158.01 47.2057 158.01 47.0391V43.0703ZM165.508 48.1016L161.562 43.1953V46.6875C161.562 46.9167 161.573 47.1042 161.594 47.25C161.62 47.3906 161.664 47.5026 161.727 47.5859C161.789 47.6693 161.875 47.7292 161.984 47.7656C162.094 47.8021 162.234 47.8255 162.406 47.8359V48H160.312V47.8359C160.495 47.8203 160.641 47.7969 160.75 47.7656C160.865 47.7292 160.951 47.6693 161.008 47.5859C161.07 47.5026 161.112 47.3906 161.133 47.25C161.154 47.1042 161.164 46.9167 161.164 46.6875V42.7656C161.076 42.6615 161 42.5781 160.938 42.5156C160.875 42.4479 160.812 42.3984 160.75 42.3672C160.688 42.3307 160.622 42.3073 160.555 42.2969C160.487 42.2812 160.406 42.2734 160.312 42.2734V42.0938H161.836L165.266 46.4141V43.4062C165.266 42.8646 165.18 42.5312 165.008 42.4062C164.94 42.3646 164.865 42.3359 164.781 42.3203C164.703 42.2995 164.581 42.2839 164.414 42.2734V42.0938H166.5V42.2734C166.333 42.2839 166.208 42.3021 166.125 42.3281C166.047 42.3542 165.979 42.388 165.922 42.4297C165.745 42.5443 165.656 42.8698 165.656 43.4062V48.1016H165.508ZM172.185 48.1016L168.24 43.1953V46.6875C168.24 46.9167 168.25 47.1042 168.271 47.25C168.297 47.3906 168.342 47.5026 168.404 47.5859C168.467 47.6693 168.553 47.7292 168.662 47.7656C168.771 47.8021 168.912 47.8255 169.084 47.8359V48H166.99V47.8359C167.172 47.8203 167.318 47.7969 167.428 47.7656C167.542 47.7292 167.628 47.6693 167.685 47.5859C167.748 47.5026 167.789 47.3906 167.81 47.25C167.831 47.1042 167.842 46.9167 167.842 46.6875V42.7656C167.753 42.6615 167.678 42.5781 167.615 42.5156C167.553 42.4479 167.49 42.3984 167.428 42.3672C167.365 42.3307 167.3 42.3073 167.232 42.2969C167.164 42.2812 167.084 42.2734 166.99 42.2734V42.0938H168.513L171.943 46.4141V43.4062C171.943 42.8646 171.857 42.5312 171.685 42.4062C171.618 42.3646 171.542 42.3359 171.459 42.3203C171.381 42.2995 171.258 42.2839 171.092 42.2734V42.0938H173.178V42.2734C173.011 42.2839 172.886 42.3021 172.803 42.3281C172.724 42.3542 172.657 42.388 172.599 42.4297C172.422 42.5443 172.334 42.8698 172.334 43.4062V48.1016H172.185ZM176.824 41.9766C177.246 41.9766 177.647 42.0651 178.027 42.2422C178.412 42.4193 178.738 42.6641 179.003 42.9766C179.222 43.2422 179.391 43.5521 179.511 43.9062C179.631 44.2604 179.691 44.6406 179.691 45.0469C179.691 45.5 179.618 45.9167 179.472 46.2969C179.332 46.6719 179.131 46.9948 178.871 47.2656C178.615 47.5365 178.308 47.7474 177.949 47.8984C177.595 48.0495 177.204 48.125 176.777 48.125C176.345 48.125 175.949 48.0495 175.589 47.8984C175.23 47.7474 174.923 47.5365 174.667 47.2656C174.412 46.9896 174.214 46.6615 174.074 46.2812C173.933 45.901 173.863 45.4818 173.863 45.0234C173.863 44.5755 173.936 44.1641 174.082 43.7891C174.227 43.4141 174.431 43.0938 174.691 42.8281C174.951 42.5573 175.261 42.349 175.621 42.2031C175.985 42.0521 176.386 41.9766 176.824 41.9766ZM176.746 42.2891C176.501 42.2891 176.266 42.3464 176.042 42.4609C175.819 42.5703 175.623 42.724 175.457 42.9219C175.368 43.026 175.287 43.1562 175.214 43.3125C175.147 43.4688 175.087 43.6406 175.035 43.8281C174.983 44.0104 174.944 44.2057 174.917 44.4141C174.891 44.6224 174.878 44.8307 174.878 45.0391C174.878 45.5755 174.949 46.0521 175.089 46.4688C175.23 46.8854 175.425 47.1979 175.675 47.4062C175.988 47.6719 176.358 47.8047 176.785 47.8047C177.009 47.8047 177.22 47.763 177.417 47.6797C177.621 47.5964 177.798 47.4792 177.949 47.3281C178.433 46.8542 178.675 46.0781 178.675 45C178.675 44.4844 178.602 44.026 178.457 43.625C178.316 43.224 178.118 42.9141 177.863 42.6953C177.535 42.4245 177.162 42.2891 176.746 42.2891ZM186.447 42.2734C186.342 42.2786 186.254 42.2917 186.181 42.3125C186.113 42.3281 186.051 42.3672 185.993 42.4297C185.936 42.487 185.879 42.5703 185.822 42.6797C185.769 42.7839 185.704 42.9245 185.626 43.1016L183.65 48.1016H183.517L181.322 43.2031C181.223 43 181.137 42.8385 181.064 42.7188C180.996 42.599 180.928 42.5078 180.861 42.4453C180.798 42.3776 180.728 42.3333 180.65 42.3125C180.577 42.2865 180.486 42.2734 180.376 42.2734V42.0938H182.759V42.2734L182.493 42.2812C182.217 42.2969 182.079 42.3906 182.079 42.5625C182.079 42.599 182.085 42.6406 182.095 42.6875C182.105 42.7292 182.124 42.7865 182.15 42.8594C182.176 42.9323 182.212 43.0234 182.259 43.1328C182.306 43.2422 182.368 43.3802 182.447 43.5469L183.79 46.5625L185.095 43.2969C185.158 43.1562 185.202 43.0286 185.228 42.9141C185.259 42.7995 185.275 42.7057 185.275 42.6328C185.275 42.5911 185.262 42.5469 185.236 42.5C185.21 42.4479 185.176 42.4089 185.134 42.3828C185.077 42.3411 185.014 42.3151 184.947 42.3047C184.884 42.2891 184.777 42.2786 184.626 42.2734V42.0938H186.447V42.2734ZM193.226 48H190.952V47.8359C191.03 47.8359 191.095 47.8359 191.148 47.8359C191.2 47.8307 191.241 47.8255 191.273 47.8203C191.309 47.8099 191.34 47.8021 191.366 47.7969C191.392 47.7865 191.418 47.7734 191.444 47.7578C191.486 47.7318 191.517 47.7005 191.538 47.6641C191.564 47.6224 191.577 47.5807 191.577 47.5391C191.577 47.3932 191.52 47.1901 191.405 46.9297L191.03 46.0781H188.702L188.288 47.1172C188.267 47.1745 188.249 47.2344 188.233 47.2969C188.223 47.3542 188.218 47.4115 188.218 47.4688C188.218 47.5885 188.265 47.6797 188.358 47.7422C188.452 47.8047 188.608 47.8359 188.827 47.8359V48H187.054V47.8359C187.163 47.8307 187.257 47.8125 187.335 47.7812C187.413 47.75 187.491 47.6849 187.569 47.5859C187.648 47.4818 187.731 47.3359 187.819 47.1484C187.913 46.9557 188.03 46.6953 188.171 46.3672L190.023 41.9922H190.194L192.421 47.0547C192.494 47.2214 192.556 47.3542 192.608 47.4531C192.666 47.5521 192.723 47.6302 192.78 47.6875C192.838 47.7396 192.9 47.776 192.968 47.7969C193.041 47.8177 193.127 47.8307 193.226 47.8359V48ZM190.913 45.7188L189.882 43.2578L188.851 45.7188H190.913ZM195.309 42.4688C195.059 42.4688 194.854 42.4818 194.692 42.5078C194.536 42.5339 194.406 42.5885 194.302 42.6719C194.203 42.7552 194.122 42.8724 194.059 43.0234C194.002 43.1693 193.947 43.3646 193.895 43.6094H193.677L193.731 42.0938H198.762L198.817 43.6094H198.598C198.546 43.3646 198.489 43.1693 198.427 43.0234C198.369 42.8724 198.291 42.7552 198.192 42.6719C198.093 42.5885 197.963 42.5339 197.802 42.5078C197.64 42.4818 197.432 42.4688 197.177 42.4688H196.7V47.0391C196.7 47.2005 196.71 47.3307 196.731 47.4297C196.752 47.5286 196.791 47.6068 196.848 47.6641C196.911 47.7214 196.997 47.763 197.106 47.7891C197.221 47.8099 197.369 47.8255 197.552 47.8359V48H194.958V47.8359C195.14 47.8255 195.286 47.8099 195.395 47.7891C195.505 47.763 195.588 47.7188 195.645 47.6562C195.708 47.5885 195.747 47.4974 195.762 47.3828C195.783 47.2682 195.794 47.1172 195.794 46.9297V42.4688H195.309ZM200.237 43.0703C200.237 42.9036 200.226 42.7708 200.206 42.6719C200.19 42.5729 200.151 42.4948 200.088 42.4375C200.026 42.3802 199.937 42.3411 199.823 42.3203C199.708 42.2995 199.557 42.2839 199.37 42.2734V42.0938H202.018V42.2734C201.831 42.2786 201.68 42.2943 201.565 42.3203C201.45 42.3411 201.362 42.3802 201.299 42.4375C201.237 42.4948 201.195 42.5755 201.174 42.6797C201.154 42.7786 201.143 42.9089 201.143 43.0703V47.0391C201.143 47.2005 201.154 47.3333 201.174 47.4375C201.2 47.5365 201.245 47.6146 201.307 47.6719C201.37 47.7292 201.458 47.7708 201.573 47.7969C201.687 47.8177 201.836 47.8307 202.018 47.8359V48H199.37V47.8359C199.557 47.8307 199.708 47.8177 199.823 47.7969C199.937 47.7708 200.023 47.7292 200.081 47.6719C200.143 47.6146 200.185 47.5365 200.206 47.4375C200.226 47.3385 200.237 47.2057 200.237 47.0391V43.0703ZM205.696 41.9766C206.117 41.9766 206.519 42.0651 206.899 42.2422C207.284 42.4193 207.61 42.6641 207.875 42.9766C208.094 43.2422 208.263 43.5521 208.383 43.9062C208.503 44.2604 208.563 44.6406 208.563 45.0469C208.563 45.5 208.49 45.9167 208.344 46.2969C208.203 46.6719 208.003 46.9948 207.742 47.2656C207.487 47.5365 207.18 47.7474 206.821 47.8984C206.466 48.0495 206.076 48.125 205.649 48.125C205.216 48.125 204.821 48.0495 204.461 47.8984C204.102 47.7474 203.795 47.5365 203.539 47.2656C203.284 46.9896 203.086 46.6615 202.946 46.2812C202.805 45.901 202.735 45.4818 202.735 45.0234C202.735 44.5755 202.808 44.1641 202.953 43.7891C203.099 43.4141 203.302 43.0938 203.563 42.8281C203.823 42.5573 204.133 42.349 204.492 42.2031C204.857 42.0521 205.258 41.9766 205.696 41.9766ZM205.617 42.2891C205.373 42.2891 205.138 42.3464 204.914 42.4609C204.69 42.5703 204.495 42.724 204.328 42.9219C204.24 43.026 204.159 43.1562 204.086 43.3125C204.019 43.4688 203.959 43.6406 203.907 43.8281C203.854 44.0104 203.815 44.2057 203.789 44.4141C203.763 44.6224 203.75 44.8307 203.75 45.0391C203.75 45.5755 203.821 46.0521 203.961 46.4688C204.102 46.8854 204.297 47.1979 204.547 47.4062C204.86 47.6719 205.229 47.8047 205.657 47.8047C205.881 47.8047 206.091 47.763 206.289 47.6797C206.492 47.5964 206.67 47.4792 206.821 47.3281C207.305 46.8542 207.547 46.0781 207.547 45C207.547 44.4844 207.474 44.026 207.328 43.625C207.188 43.224 206.99 42.9141 206.735 42.6953C206.407 42.4245 206.034 42.2891 205.617 42.2891ZM214.412 48.1016L210.467 43.1953V46.6875C210.467 46.9167 210.477 47.1042 210.498 47.25C210.524 47.3906 210.568 47.5026 210.631 47.5859C210.693 47.6693 210.779 47.7292 210.889 47.7656C210.998 47.8021 211.139 47.8255 211.311 47.8359V48H209.217V47.8359C209.399 47.8203 209.545 47.7969 209.654 47.7656C209.769 47.7292 209.855 47.6693 209.912 47.5859C209.975 47.5026 210.016 47.3906 210.037 47.25C210.058 47.1042 210.068 46.9167 210.068 46.6875V42.7656C209.98 42.6615 209.904 42.5781 209.842 42.5156C209.779 42.4479 209.717 42.3984 209.654 42.3672C209.592 42.3307 209.527 42.3073 209.459 42.2969C209.391 42.2812 209.311 42.2734 209.217 42.2734V42.0938H210.74L214.17 46.4141V43.4062C214.17 42.8646 214.084 42.5312 213.912 42.4062C213.844 42.3646 213.769 42.3359 213.686 42.3203C213.607 42.2995 213.485 42.2839 213.318 42.2734V42.0938H215.404V42.2734C215.238 42.2839 215.113 42.3021 215.029 42.3281C214.951 42.3542 214.884 42.388 214.826 42.4297C214.649 42.5443 214.561 42.8698 214.561 43.4062V48.1016H214.412Z" fill="black"/>
</g>
<defs>
<filter id="filter0_d_2365_12" x="12.5375" y="22.3535" width="157.462" height="56.6465" filterUnits="userSpaceOnUse" color-interpolation-filters="sRGB">
<feFlood flood-opacity="0" result="BackgroundImageFix"/>
<feColorMatrix in="SourceAlpha" type="matrix" values="0 0 0 0 0 0 0 0 0 0 0 0 0 0 0 0 0 0 127 0" result="hardAlpha"/>
<feOffset dy="4"/>
<feGaussianBlur stdDeviation="2"/>
<feComposite in2="hardAlpha" operator="out"/>
<feColorMatrix type="matrix" values="0 0 0 0 0 0 0 0 0 0 0 0 0 0 0 0 0 0 0.25 0"/>
<feBlend mode="normal" in2="BackgroundImageFix" result="effect1_dropShadow_2365_12"/>
<feBlend mode="normal" in="SourceGraphic" in2="effect1_dropShadow_2365_12" result="shape"/>
</filter>
<filter id="filter1_d_2365_12" x="112.363" y="41.9766" width="107.041" height="14.1484" filterUnits="userSpaceOnUse" color-interpolation-filters="sRGB">
<feFlood flood-opacity="0" result="BackgroundImageFix"/>
<feColorMatrix in="SourceAlpha" type="matrix" values="0 0 0 0 0 0 0 0 0 0 0 0 0 0 0 0 0 0 127 0" result="hardAlpha"/>
<feOffset dy="4"/>
<feGaussianBlur stdDeviation="2"/>
<feComposite in2="hardAlpha" operator="out"/>
<feColorMatrix type="matrix" values="0 0 0 0 0 0 0 0 0 0 0 0 0 0 0 0 0 0 0.25 0"/>
<feBlend mode="normal" in2="BackgroundImageFix" result="effect1_dropShadow_2365_12"/>
<feBlend mode="normal" in="SourceGraphic" in2="effect1_dropShadow_2365_12" result="shape"/>
</filter>
</defs>
</svg>
